<?xml version="1.0" encoding="UTF-8"?>
<svg xmlns="http://www.w3.org/2000/svg" version="1.1" width="225px" height="225px" style="shape-rendering:geometricPrecision; text-rendering:geometricPrecision; image-rendering:optimizeQuality; fill-rule:evenodd; clip-rule:evenodd" xmlns:xlink="http://www.w3.org/1999/xlink">
<g><path style="opacity:0.999" fill="#fdfdfd" d="M 180.5,150.5 C 158.535,128.035 136.368,105.701 114,83.5C 112.955,84.3734 112.122,85.3734 111.5,86.5C 100.14,97.1937 89.1396,108.194 78.5,119.5C 77.1667,119.5 76.5,120.167 76.5,121.5C 75.1667,121.5 74.5,122.167 74.5,123.5C 74.5,124.167 74.1667,124.5 73.5,124.5C 71.1667,124.833 69.8333,126.167 69.5,128.5C 69.5,129.167 69.1667,129.5 68.5,129.5C 67.1667,129.5 66.5,130.167 66.5,131.5C 65.1667,131.5 64.5,132.167 64.5,133.5C 64.5,134.167 64.1667,134.5 63.5,134.5C 62.1667,134.5 61.5,135.167 61.5,136.5C 60.1667,136.5 59.5,137.167 59.5,138.5C 59.5,139.167 59.1667,139.5 58.5,139.5C 57.1667,139.5 56.5,140.167 56.5,141.5C 54.5,141.5 53.5,142.5 53.5,144.5C 52.1667,144.5 51.5,145.167 51.5,146.5C 49.5223,148.259 47.3556,149.925 45,151.5C 40.9644,147.296 36.7978,143.296 32.5,139.5C 31.2003,138.399 30.7003,137.066 31,135.5C 58.1867,108.483 85.6867,81.4827 113.5,54.5C 140.986,81.4862 168.32,108.653 195.5,136C 191.381,140.94 187.047,145.607 182.5,150C 181.906,150.464 181.239,150.631 180.5,150.5 Z"/></g>
<g><path style="opacity:0.055" fill="#c0c0c0" d="M 179.5,150.5 C 179.833,150.5 180.167,150.5 180.5,150.5C 181.239,150.631 181.906,150.464 182.5,150C 187.047,145.607 191.381,140.94 195.5,136C 168.32,108.653 140.986,81.4862 113.5,54.5C 85.6867,81.4827 58.1867,108.483 31,135.5C 30.7003,137.066 31.2003,138.399 32.5,139.5C 32.5,140.167 32.5,140.833 32.5,141.5C 30.7573,140.359 29.7573,138.692 29.5,136.5C 30.4295,134.394 31.5962,132.394 33,130.5C 59.7322,104.433 86.3989,78.4328 113,52.5C 114.225,52.8623 115.391,53.3623 116.5,54C 142.666,81.1656 169.166,107.999 196,134.5C 196.713,137.475 195.879,139.975 193.5,142C 189.868,144.63 186.535,147.63 183.5,151C 181.934,151.765 180.601,151.598 179.5,150.5 Z"/></g>
<g><path style="opacity:0.369" fill="#9e9e9e" d="M 180.5,150.5 C 180.167,150.5 179.833,150.5 179.5,150.5C 157.535,129.035 135.701,107.368 114,85.5C 113.329,86.2524 112.496,86.5858 111.5,86.5C 112.122,85.3734 112.955,84.3734 114,83.5C 136.368,105.701 158.535,128.035 180.5,150.5 Z"/></g>
<g><path style="opacity:0.192" fill="#afafaf" d="M 111.5,86.5 C 101.757,97.7466 91.4237,108.58 80.5,119C 79.9056,119.464 79.2389,119.631 78.5,119.5C 89.1396,108.194 100.14,97.1937 111.5,86.5 Z"/></g>
<g><path style="opacity:0.133" fill="#a1a1a1" d="M 78.5,119.5 C 78.1667,120.5 77.5,121.167 76.5,121.5C 76.5,120.167 77.1667,119.5 78.5,119.5 Z"/></g>
<g><path style="opacity:0.125" fill="#a0a0a0" d="M 76.5,121.5 C 76.1667,122.5 75.5,123.167 74.5,123.5C 74.5,122.167 75.1667,121.5 76.5,121.5 Z"/></g>
<g><path style="opacity:0.102" fill="#ababab" d="M 73.5,124.5 C 72.5,126.167 71.1667,127.5 69.5,128.5C 69.8333,126.167 71.1667,124.833 73.5,124.5 Z"/></g>
<g><path style="opacity:0.098" fill="#a2a2a2" d="M 68.5,129.5 C 68.1667,130.5 67.5,131.167 66.5,131.5C 66.5,130.167 67.1667,129.5 68.5,129.5 Z"/></g>
<g><path style="opacity:0.098" fill="#a0a0a0" d="M 66.5,131.5 C 66.1667,132.5 65.5,133.167 64.5,133.5C 64.5,132.167 65.1667,131.5 66.5,131.5 Z"/></g>
<g><path style="opacity:0.082" fill="#a1a1a1" d="M 63.5,134.5 C 63.1667,135.5 62.5,136.167 61.5,136.5C 61.5,135.167 62.1667,134.5 63.5,134.5 Z"/></g>
<g><path style="opacity:0.082" fill="#a1a1a1" d="M 61.5,136.5 C 61.1667,137.5 60.5,138.167 59.5,138.5C 59.5,137.167 60.1667,136.5 61.5,136.5 Z"/></g>
<g><path style="opacity:0.098" fill="#a0a0a0" d="M 58.5,139.5 C 58.1667,140.5 57.5,141.167 56.5,141.5C 56.5,140.167 57.1667,139.5 58.5,139.5 Z"/></g>
<g><path style="opacity:0.184" fill="#aeaeae" d="M 32.5,139.5 C 36.7978,143.296 40.9644,147.296 45,151.5C 47.3556,149.925 49.5223,148.259 51.5,146.5C 49.6945,151.572 46.3611,153.072 41.5,151C 38.3683,147.855 35.3683,144.688 32.5,141.5C 32.5,140.833 32.5,140.167 32.5,139.5 Z"/></g>
<g><path style="opacity:0.114" fill="#a8a8a8" d="M 56.5,141.5 C 55.8333,142.833 54.8333,143.833 53.5,144.5C 53.5,142.5 54.5,141.5 56.5,141.5 Z"/></g>
<g><path style="opacity:0.129" fill="#a1a1a1" d="M 53.5,144.5 C 53.1667,145.5 52.5,146.167 51.5,146.5C 51.5,145.167 52.1667,144.5 53.5,144.5 Z"/></g>
</svg>
